HIERARCHY
ROOT Hips
{
    OFFSET   0.000000   0.000000   0.000000
    CHANNELS 6 Xposition Yposition Zposition Zrotation Xrotation Yrotation
    JOINT Chest
    {
        OFFSET   0.000000   8.007230   0.000000
        CHANNELS 3 Zrotation Xrotation Yrotation
        JOINT Chest2
        {
            OFFSET   0.000000  22.077100   0.000000
            CHANNELS 3 Zrotation Xrotation Yrotation
            JOINT Neck
            {
                OFFSET   0.000000  23.255100   0.000000
                CHANNELS 3 Zrotation Xrotation Yrotation
                JOINT Head
                {
                    OFFSET   0.000000  14.370100   1.956600
                    CHANNELS 3 Zrotation Xrotation Yrotation
                    End Site
                    {
                        OFFSET   0.000000  19.566000   0.000000
                    }
                }
            }
            JOINT LeftCollar
            {
                OFFSET   3.911900  19.017000  -0.467063
                CHANNELS 3 Zrotation Xrotation Yrotation
                JOINT LeftShoulder
                {
                    OFFSET  10.383700   0.000000   0.000000
                    CHANNELS 3 Zrotation Xrotation Yrotation
                    JOINT LeftElbow
                    {
                        OFFSET  26.662100   0.001193   0.000980
                        CHANNELS 3 Zrotation Xrotation Yrotation
                        JOINT LeftWrist
                        {
                            OFFSET  28.869000  -0.000059  -0.000082
                            CHANNELS 3 Zrotation Xrotation Yrotation
                            JOINT LeftFinger0
                            {
                                OFFSET   2.044650  -2.323450   3.252850
                                CHANNELS 3 Zrotation Xrotation Yrotation
                                JOINT LeftFinger01
                                {
                                    OFFSET   3.088130   0.000000   0.000000
                                    CHANNELS 3 Zrotation Xrotation Yrotation
                                    JOINT LeftFinger02
                                    {
                                        OFFSET   2.639460   0.000000   0.000000
                                        CHANNELS 3 Zrotation Xrotation Yrotation
                                        End Site
                                        {
                                            OFFSET   2.582190   0.000000   0.000000
                                        }
                                    }
                                }
                            }
                            JOINT LeftFinger1
                            {
                                OFFSET   8.364480   0.000000   3.252850
                                CHANNELS 3 Zrotation Xrotation Yrotation
                                JOINT LeftFinger11
                                {
                                    OFFSET   4.646930   0.000000   0.000000
                                    CHANNELS 3 Zrotation Xrotation Yrotation
                                    JOINT LeftFinger12
                                    {
                                        OFFSET   2.323470   0.000000   0.000000
                                        CHANNELS 3 Zrotation Xrotation Yrotation
                                        End Site
                                        {
                                            OFFSET   2.273050   0.000000   0.000000
                                        }
                                    }
                                }
                            }
                            JOINT LeftFinger2
                            {
                                OFFSET   8.364490   0.000016   1.078090
                                CHANNELS 3 Zrotation Xrotation Yrotation
                                JOINT LeftFinger21
                                {
                                    OFFSET   5.111610   0.000000   0.000000
                                    CHANNELS 3 Zrotation Xrotation Yrotation
                                    JOINT LeftFinger22
                                    {
                                        OFFSET   2.788150   0.000016   0.000000
                                        CHANNELS 3 Zrotation Xrotation Yrotation
                                        End Site
                                        {
                                            OFFSET   2.727660   0.000000   0.000000
                                        }
                                    }
                                }
                            }
                            JOINT LeftFinger3
                            {
                                OFFSET   7.899780   0.000015  -1.078090
                                CHANNELS 3 Zrotation Xrotation Yrotation
                                JOINT LeftFinger31
                                {
                                    OFFSET   4.646930   0.000000   0.000000
                                    CHANNELS 3 Zrotation Xrotation Yrotation
                                    JOINT LeftFinger32
                                    {
                                        OFFSET   2.323470   0.000000   0.000000
                                        CHANNELS 3 Zrotation Xrotation Yrotation
                                        End Site
                                        {
                                            OFFSET   2.273050   0.000000   0.000000
                                        }
                                    }
                                }
                            }
                            JOINT LeftFinger4
                            {
                                OFFSET   7.435090   0.000000  -3.252850
                                CHANNELS 3 Zrotation Xrotation Yrotation
                                JOINT LeftFinger41
                                {
                                    OFFSET   3.717550   0.000000   0.000000
                                    CHANNELS 3 Zrotation Xrotation Yrotation
                                    JOINT LeftFinger42
                                    {
                                        OFFSET   1.858770   0.000000   0.000000
                                        CHANNELS 3 Zrotation Xrotation Yrotation
                                        End Site
                                        {
                                            OFFSET   1.818440   0.000000   0.000000
                                        }
                                    }
                                }
                            }
                        }
                    }
                }
            }
            JOINT RightCollar
            {
                OFFSET  -3.911910  19.017000  -0.467062
                CHANNELS 3 Zrotation Xrotation Yrotation
                JOINT RightShoulder
                {
                    OFFSET -10.383700   0.000014   0.000000
                    CHANNELS 3 Zrotation Xrotation Yrotation
                    JOINT RightElbow
                    {
                        OFFSET -26.662100   0.001225   0.001091
                        CHANNELS 3 Zrotation Xrotation Yrotation
                        JOINT RightWrist
                        {
                            OFFSET -28.869000  -0.000020  -0.000085
                            CHANNELS 3 Zrotation Xrotation Yrotation
                            JOINT RightFinger0
                            {
                                OFFSET  -2.044650  -2.323490   3.252850
                                CHANNELS 3 Zrotation Xrotation Yrotation
                                JOINT RightFinger01
                                {
                                    OFFSET  -3.088130   0.000000   0.000000
                                    CHANNELS 3 Zrotation Xrotation Yrotation
                                    JOINT RightFinger02
                                    {
                                        OFFSET  -2.639460   0.000000   0.000000
                                        CHANNELS 3 Zrotation Xrotation Yrotation
                                        End Site
                                        {
                                            OFFSET  -2.582190   0.000000   0.000000
                                        }
                                    }
                                }
                            }
                            JOINT RightFinger1
                            {
                                OFFSET  -8.364480   0.000000   3.252850
                                CHANNELS 3 Zrotation Xrotation Yrotation
                                JOINT RightFinger11
                                {
                                    OFFSET  -4.646930   0.000000   0.000000
                                    CHANNELS 3 Zrotation Xrotation Yrotation
                                    JOINT RightFinger12
                                    {
                                        OFFSET  -2.323470   0.000000   0.000000
                                        CHANNELS 3 Zrotation Xrotation Yrotation
                                        End Site
                                        {
                                            OFFSET  -2.273050   0.000000   0.000000
                                        }
                                    }
                                }
                            }
                            JOINT RightFinger2
                            {
                                OFFSET  -8.364480   0.000000   1.078090
                                CHANNELS 3 Zrotation Xrotation Yrotation
                                JOINT RightFinger21
                                {
                                    OFFSET  -5.111620   0.000000   0.000000
                                    CHANNELS 3 Zrotation Xrotation Yrotation
                                    JOINT RightFinger22
                                    {
                                        OFFSET  -2.788160   0.000000   0.000000
                                        CHANNELS 3 Zrotation Xrotation Yrotation
                                        End Site
                                        {
                                            OFFSET  -2.727660   0.000000   0.000000
                                        }
                                    }
                                }
                            }
                            JOINT RightFinger3
                            {
                                OFFSET  -7.899780   0.000000  -1.078090
                                CHANNELS 3 Zrotation Xrotation Yrotation
                                JOINT RightFinger31
                                {
                                    OFFSET  -4.646930   0.000000   0.000000
                                    CHANNELS 3 Zrotation Xrotation Yrotation
                                    JOINT RightFinger32
                                    {
                                        OFFSET  -2.323470   0.000000   0.000000
                                        CHANNELS 3 Zrotation Xrotation Yrotation
                                        End Site
                                        {
                                            OFFSET  -2.273050   0.000000   0.000000
                                        }
                                    }
                                }
                            }
                            JOINT RightFinger4
                            {
                                OFFSET  -7.435090   0.000000  -3.252850
                                CHANNELS 3 Zrotation Xrotation Yrotation
                                JOINT RightFinger41
                                {
                                    OFFSET  -3.717550   0.000000   0.000000
                                    CHANNELS 3 Zrotation Xrotation Yrotation
                                    JOINT RightFinger42
                                    {
                                        OFFSET  -1.858760   0.000000   0.000000
                                        CHANNELS 3 Zrotation Xrotation Yrotation
                                        End Site
                                        {
                                            OFFSET  -1.818440   0.000000   0.000000
                                        }
                                    }
                                }
                            }
                        }
                    }
                }
            }
        }
    }
    JOINT LeftHip
    {
        OFFSET   9.783030   0.000000   0.000000
        CHANNELS 3 Zrotation Xrotation Yrotation
        JOINT LeftKnee
        {
            OFFSET   0.000063 -41.789100   0.000608
            CHANNELS 3 Zrotation Xrotation Yrotation
            JOINT LeftAnkle
            {
                OFFSET   0.000048 -41.133200  -0.000184
                CHANNELS 3 Zrotation Xrotation Yrotation
                JOINT LeftToe
                {
                    OFFSET   0.000000  -6.358960  14.674500
                    CHANNELS 3 Zrotation Xrotation Yrotation
                    End Site
                    {
                        OFFSET   0.000000   0.000000   3.913200
                    }
                }
            }
        }
    }
    JOINT RightHip
    {
        OFFSET  -9.783030   0.000000   0.000000
        CHANNELS 3 Zrotation Xrotation Yrotation
        JOINT RightKnee
        {
            OFFSET   0.000071 -41.789100   0.001239
            CHANNELS 3 Zrotation Xrotation Yrotation
            JOINT RightAnkle
            {
                OFFSET   0.000037 -41.133200  -0.000166
                CHANNELS 3 Zrotation Xrotation Yrotation
                JOINT RightToe
                {
                    OFFSET   0.000000  -6.358960  14.674500
                    CHANNELS 3 Zrotation Xrotation Yrotation
                    End Site
                    {
                        OFFSET   0.000000   0.000000   3.913200
                    }
                }
            }
        }
    }
}
MOTION
Frames: 4
Frame Time:   0.016667
  0.106018  89.577100   0.520991  -2.714720  -5.288210  -5.012270   1.204370   1.642550   0.508993   2.395570   3.295390   0.983925   0.437436   2.232200  -0.019412   0.722384   4.525760  -0.882292  -2.882120  -1.990680  -0.775271 -78.320700  14.521900   8.592420  -1.653030  -6.270460 -15.884100  15.278900 -17.230300   6.341100  40.725400  26.795400 -65.469300 -20.611700   0.000533   0.008794  -5.305880   0.000958  -0.005959 -27.584600   6.519320 -12.264500 -23.141300   0.001369  -0.001094 -16.192500   0.002659  -0.002631 -27.911100   2.197720  -4.141060 -31.920800  -0.002566  -0.000131 -21.259200   0.000227  -0.004943 -27.684200   2.181840  -4.149430 -30.603400   0.004462  -0.001448 -20.388600   0.003124  -0.002788 -30.558600   1.154800  -1.941280 -45.867400  -0.004441  -0.006147 -30.547600   0.000878  -0.000197   5.547190  -1.574280   3.043540  73.489800   7.206370  -9.644110  -0.239537 -12.758800  10.381300 -14.247200   1.431710  -5.931650 -40.314400  29.842200  70.208200  19.316600   0.003059  -0.001023   4.658290   0.002236   0.003548  27.038500   3.979440   7.742870  22.340800  -0.007889  -0.003884  15.640200  -0.006018  -0.001213  27.892600   2.303680   4.341850  31.957800  -0.008337  -0.005143  21.283900  -0.012250   0.002627  27.310200   1.985090   3.837860  28.617100  -0.001842   0.004660  19.059000  -0.012879  -0.001586  39.097300  -0.815835  -1.003820  58.656600   0.001267   0.004877  39.065300  -0.001206   0.001736   1.119670   7.994510   2.281920   1.394030   0.155251   5.730210  -1.372810  -3.425680   3.331010  -0.000000   0.000000  -0.000000   3.763480   5.846580  -0.546688  -1.282770   2.798190  -8.320790  -1.141070  -4.259080  -0.784953   0.000000   0.000000  -0.000000
  0.105835  89.577100   0.519694  -2.712990  -5.288340  -4.996800   1.197900   1.659410   0.513318   2.382380   3.329130   0.992431   0.455815   2.247040  -0.019413   0.752768   4.555820  -0.880768  -2.882180  -1.993180  -0.781827 -78.301500  14.549300   8.570250  -1.660200  -6.291600 -15.892700  15.277700 -17.241700   6.341760  40.724300  26.795700 -65.465200 -20.620900   0.000529   0.008786  -5.310480   0.000964  -0.005959 -27.585100   6.516080 -12.256800 -23.141300   0.001369  -0.001085 -16.192300   0.002647  -0.002629 -27.909200   2.209730  -4.163290 -31.938400  -0.002572  -0.000126 -21.270900   0.000222  -0.004940 -27.682600   2.193540  -4.171830 -30.600900   0.004456  -0.001442 -20.384000   0.003120  -0.002785 -30.557600   1.154620  -1.943260 -45.865900  -0.004447  -0.006142 -30.546600   0.000872  -0.000196   5.552350  -1.577680   3.043540  73.486000   7.215330  -9.644310  -0.222664 -12.773300  10.366800 -14.248700   1.416750  -5.931770 -40.306800  29.838400  70.204400  19.334500   0.003058  -0.001020   4.667260   0.002241   0.003548  27.037700   3.981550   7.747360  22.340700  -0.007898  -0.003890  15.640000  -0.006026  -0.001214  27.892600   2.303680   4.341850  31.935600  -0.008340  -0.005148  21.269100  -0.012262   0.002623  27.303400   1.976300   3.822340  28.583200  -0.001838   0.004656  19.036400  -0.012887  -0.001591  39.067700  -0.807520  -0.994630  58.612000   0.001272   0.004872  39.035700  -0.001207   0.001733   1.126450   8.012900   2.284960   1.395230   0.126181   5.726450  -1.379310  -3.409500   3.322330   0.000000   0.000000  -0.000000   3.742590   5.864670  -0.551412  -1.251750   2.761100  -8.336370  -1.148580  -4.239410  -0.771217   0.000000   0.000000   0.000000
  0.105652  89.577100   0.515882  -2.711260  -5.288460  -4.981320   1.186800   1.688650   0.522512   2.359670   3.387690   1.010570   0.489048   2.277700  -0.019425   0.807669   4.617900  -0.874322  -2.882470  -1.997830  -0.794419 -78.268800  14.598000   8.529780  -1.672380  -6.329930 -15.901900  15.274800 -17.258100   6.344190  40.722500  26.797500 -65.459400 -20.638600   0.000524   0.008778  -5.319290   0.000970  -0.005961 -27.585100   6.509100 -12.242100 -23.141300   0.001365  -0.001063 -16.192000   0.002620  -0.002621 -27.906500   2.226800  -4.195050 -31.956000  -0.002583  -0.000112 -21.282700   0.000205  -0.004931 -27.680200   2.210150  -4.203840 -30.590800   0.004442  -0.001430 -20.373500   0.003110  -0.002778 -30.550800   1.154440  -1.948120 -45.855800  -0.004463  -0.006130 -30.539900   0.000856  -0.000195   5.563060  -1.587310   3.043540  73.479900   7.240770  -9.644860  -0.193742 -12.800100  10.339100 -14.250200   1.401800  -5.931880 -40.299600  29.833500  70.201500  19.366200   0.003057  -0.001016   4.683110   0.002247   0.003548  27.036300   3.985890   7.756390  22.340600  -0.007924  -0.003903  15.639600  -0.006045  -0.001216  27.892600   2.303680   4.341850  31.902300  -0.008345  -0.005160  21.247000  -0.012295   0.002611  27.292700   1.967510   3.806830  28.531700  -0.001826   0.004646  19.002100  -0.012910  -0.001602  39.022300  -0.794752  -0.980509  58.543500   0.001283   0.004857  38.990100  -0.001211   0.001725   1.139370   8.031270   2.290530   1.396430   0.097112   5.719590  -1.390580  -3.393320   3.313270   0.000000   0.000000   0.000000   3.705000   5.887820  -0.568363  -1.196270   2.710450  -8.351860  -1.161790  -4.209610  -0.749694  -0.000000   0.000000   0.000000
  0.105693  89.577000   0.509258  -2.713570  -5.294030  -4.982530   1.177220   1.714400   0.534143   2.339960   3.439330   1.033620   0.520805   2.312960  -0.020777   0.859864   4.689160  -0.860094  -2.883010  -2.003940  -0.806718 -78.239600  14.643400   8.491650  -1.682180  -6.366540 -15.896100  15.271800 -17.266300   6.355340  40.732000  26.806900 -65.461000 -20.658500   0.000525   0.008789  -5.329270   0.000964  -0.005970 -27.581900   6.497400 -12.222200 -23.137600   0.001354  -0.001031 -16.191900   0.002589  -0.002605 -27.905500   2.232730  -4.206650 -31.940500  -0.002595  -0.000088 -21.272300   0.000176  -0.004918 -27.679200   2.215870  -4.215540 -30.564600   0.004422  -0.001417 -20.356400   0.003093  -0.002766 -30.530200   1.155790  -1.956240 -45.825000  -0.004487  -0.006110 -30.519400   0.000836  -0.000197   5.576430  -1.602660   3.039640  73.474000   7.281830  -9.640390  -0.169002 -12.826400  10.308600 -14.249800   1.405480  -5.931860 -40.297300  29.843800  70.223000  19.397600   0.003057  -0.001031   4.698790   0.002246   0.003526  27.035100   3.990230   7.765520  22.340600  -0.007965  -0.003919  15.639500  -0.006076  -0.001220  27.891700   2.309200   4.352740  31.880600  -0.008353  -0.005179  21.232500  -0.012350   0.002592  27.284700   1.967590   3.807230  28.499100  -0.001808   0.004630  18.980500  -0.012946  -0.001618  38.992400  -0.786276  -0.971118  58.498500   0.001298   0.004830  38.960100  -0.001215   0.001711   1.152400   8.028660   2.296960   1.395720   0.109901   5.710950  -1.401570  -3.396350   3.312870  -0.000000   0.000000   0.000000   3.669110   5.892420  -0.599283  -1.144550   2.693290  -8.330550  -1.173700  -4.192300  -0.736094  -0.000000   0.000000   0.000000
